<svg xmlns="http://www.w3.org/2000/svg" viewBox="0 0 512 512" ><path d="M497 302h-15V105c0-41.4-33.6-75-75-75H207.4C201.2 12.5 184.6 0 165 0c-24.8 0-45 20.2-45 45v45h-15c-41.4 0-75 33.6-75 75v49.6C12.5 220.8 0 237.4 0 257s12.5 36.2 30 42.4V377c0 33.5 22.1 61.9 52.5 71.5L65.7 482H15c-8.3 0-15 6.7-15 15s6.7 15 15 15h482c8.3 0 15-6.7 15-15V317c0-8.3-6.7-15-15-15zm-15 30v30h-30v-30h30zm0 60v90H360v-90h122zm-30-287v197h-15c-8.3 0-15 6.7-15 15v45h-77c-8.3 0-15 6.7-15 15v105h-65.7l-16.7-33.5c30.4-9.6 52.5-38 52.5-71.5v-77.6c17.5-6.2 30-22.9 30-42.4s-12.5-36.2-30-42.4V165c0-41.4-33.6-75-75-75h-15V60h197c24.7 0 44.9 20.2 44.9 45zM150 45c0-8.3 6.7-15 15-15s15 6.7 15 15v45h-30V45zm-45 75h120c24.8 0 45 20.2 45 45v47H60v-47c0-24.8 20.2-45 45-45zM45 242h240c8.3 0 15 6.7 15 15s-6.7 15-15 15H45c-8.3 0-15-6.7-15-15s6.7-15 15-15zm15 135v-75h210v75c0 24.8-20.2 45-45 45H105c-24.8 0-45-20.2-45-45zm54.3 75h101.5l15 30H99.3l15-30z" fill="#2a579c"/></svg>
