<svg version="1.1" id="Capa_1" xmlns="http://www.w3.org/2000/svg" x="0" y="0" viewBox="0 0 512 512" xml:space="preserve"><style>.st0{fill:#2a579c}</style><path class="st0" d="M507.6 163c5.9-5.9 5.9-15.4 0-21.2l-126.1-126c-5.9-5.9-15.4-5.9-21.2 0l-39.4 39.4-55.5 17-54.6-17.8-39.9-39.9c-5.9-5.9-15.4-5.9-21.2 0L4.4 159.7c-5.9 5.9-5.9 15.4 0 21.2L44 220.5l14.5 55.3c-5.4 3.8-7.3 6.5-16.8 15.8-27.6 27.6-9.1 74.6 29.3 76.6 1.2 22.9 19.5 41.2 42.4 42.4 1.2 22.9 19.5 41.2 42.4 42.4.6 11.1 5.2 21.4 13.1 29.4 17.5 17.5 46.1 17.5 63.6 0l11.3-11.3c.2-.2.4-.5.6-.7l18.3 18.3c17.5 17.5 46.1 17.5 63.6 0 7.2-7.2 11.7-16.4 12.8-26.4h.6c11.5 0 23-4.4 31.8-13.1 7-7 11.5-16 12.8-25.7h1.3c11.5 0 23-4.4 31.8-13.1 6.9-6.9 11.3-15.7 12.7-25.2.7 0 1.5.1 2.2.1 11.5 0 23-4.4 31.8-13.1 17.6-17.6 17.6-46 0-63.6l-41.8-41.8 44-62.6 41.3-41.2zM57.4 191.5l-21.2-21.2 124-124 21.2 21.2-124 124zM84 333.9c-5.8 5.8-15.3 5.8-21.2 0-5.8-5.8-5.8-15.3 0-21.1l10.6-10.6c9.4-9.4 25.5-2.7 25.5 10.6.1 9.4-7.4 12.5-14.9 21.1zm42.5 42.5c-5.8 5.8-15.3 5.8-21.2 0-5.8-5.8-5.8-15.3 0-21.1l42.4-42.4c5.8-5.8 15.3-5.8 21.2 0 5.8 5.8 5.8 15.3 0 21.1l-42.4 42.4zm42.4 42.4c-5.8 5.8-15.3 5.8-21.2 0-5.8-5.8-5.8-15.3 0-21.1l31.8-31.8c5.8-5.8 15.3-5.8 21.2 0 5.8 5.8 5.8 15.3 0 21.1l-31.8 31.8zm53.7 31.1l-11.3 11.3c-5.8 5.8-15.3 5.8-21.2 0-5.8-5.8-5.8-15.3 0-21.1l11.3-11.3c5.8-5.8 15.3-5.8 21.2 0 5.9 5.8 5.9 15.3 0 21.1zM443 329.7c5.9 5.8 5.9 15.3 0 21.2-5.8 5.8-15.3 5.8-21.2 0l-35.3-35.3c-6.8-6.8-16.3-6.3-22-.6-5.9 5.9-5.9 15.4 0 21.2l31.7 31.7c5.8 5.8 5.9 15.3 0 21.2-5.8 5.8-15.3 5.8-21.2 0l-31.7-31.7c-5.9-5.9-15.4-5.9-21.2 0-5.9 5.9-5.9 15.4 0 21.2l28.6 28.6c5.5 5.9 5.3 15.1-.4 20.7-5.8 5.8-15.3 5.8-21.2 0L301 399.8c-5.9-5.9-15.4-5.9-21.2 0-5.9 5.9-5.9 15.4 0 21.2l.7.7 24.7 24.7c5.8 5.8 5.9 15.3 0 21.2-5.8 5.8-15.3 5.8-21.2 0l-27-27v-1.2c0-12-4.7-23.3-13.2-31.8-4.2-4.2-9.1-7.4-14.3-9.6 13.6-24.8 1-56.9-27.4-64.8 3.2-14.6-.9-30.3-12.1-41.5-17.5-17.5-46.1-17.5-63.6 0l-1.8 1.8c-6.7-14-20.6-24.2-37.2-25.5l-13.3-50.7L206.8 84.6l30.8 10c-48 48.1-56.3 56.4-57.5 57.5l-.1.1c-17.8 17.8-17.8 46.5 0 64.3 17.7 17.7 46.6 17.7 64.3 0l42.8-42.8 155.9 156zm-42.1-84.5L297.7 142c-5.9-5.9-15.4-5.9-21.2 0L223 195.4c-6 6-15.8 6-21.9 0-6-6-6-15.8 0-21.9l.1-.1c1-1 9.6-9.7 72.1-72.4l51.3-15.7L435.4 196l-34.5 49.2zM350.1 68.4L371 47.5l104.8 104.8-20.9 20.9L350.1 68.4z"/><path class="st0" d="M201.2 173.5c-.1.1-.1.1 0 0 0 .1 0 0 0 0zm0 0zM180 152.3z"/></svg>