<svg xmlns="http://www.w3.org/2000/svg" viewBox="0 0 512 512"><path d="M381.6 312l-35.1-7.3c38.9-44.7 27.4-92.4 29.4-108.7h5c8.3 0 15-6.7 15-15v-50c0-7.2-5.1-13.4-12.2-14.7l-13.4-2.6c-10.8-34-36.3-61.6-69.4-74.9V15c0-8.3-6.7-15-15-15h-60c-8.3 0-15 6.7-15 15v23.7c-33.1 13.4-58.6 40.9-69.4 75l-13.4 2.6c-7.1 1.4-12.2 7.5-12.2 14.7v50c0 8.3 6.7 15 15 15h5c2.1 16.2-9.4 64 29.4 108.6l-35.1 7.4C72.7 324.1 31 375 31 434.3V497c0 8.3 6.7 15 15 15h420c8.3 0 15-6.7 15-15v-62.7c0-58.9-41.3-110.1-99.4-122.3zm-64.4 17.2l43.8 9.2V391H151v-52.7l43.8-9.2c37.1 22.2 84.2 22.9 122.4.1zM151 421h210v61H151v-61zm90-391h30v46h-30V30zm-95 113.4l10.4-2c5.9-1.1 10.5-5.6 11.8-11.4 5.6-24.7 21.3-45.6 42.8-58v19c0 8.3 6.7 15 15 15h60c8.3 0 15-6.7 15-15V72c21.4 12.4 37.2 33.3 42.8 57.9 1.3 5.8 5.9 10.3 11.8 11.4l10.5 2V166H146v-22.6zM346 196v30c0 49.6-40.4 90-90 90s-90-40.4-90-90v-30h180zM61 434.3c0-39.2 24.5-74.1 60-88.3v136H61v-47.7zM451 482h-60V346c35.5 14.2 60 49.1 60 88.3V482z" fill="#2a579c"/></svg>