<svg version="1.1" id="Capa_1" xmlns="http://www.w3.org/2000/svg" x="0" y="0" viewBox="0 0 512 512" xml:space="preserve"><style>.st0{fill:#2a579c}</style><path class="st0" d="M497 13.7H15c-8.3 0-15 6.7-15 15v377.8c0 8.3 6.7 15 15 15h182.6v46.9h-4.3c-8.3 0-15 6.7-15 15s6.7 15 15 15h125.4c8.3 0 15-6.7 15-15s-6.7-15-15-15h-4.3v-46.9H497c8.3 0 15-6.7 15-15V28.7c0-8.3-6.7-15-15-15zm-467 30h452v269.7H30V43.7zm254.4 424.6h-56.8v-46.9h56.8v46.9zM482 391.5H30v-48.1h452v48.1z"/><path class="st0" d="M393.6 86.6H133c-8.3 0-15 6.7-15 15s6.7 15 15 15h260.6c8.3 0 15-6.7 15-15s-6.7-15-15-15zm0 153.9H296c-8.3 0-15 6.7-15 15s6.7 15 15 15h97.6c8.3 0 15-6.7 15-15s-6.7-15-15-15zm0-72.4H296c-8.3 0-15 6.7-15 15s6.7 15 15 15h97.6c8.3 0 15-6.7 15-15s-6.7-15-15-15zm-157.6 0H133c-8.3 0-15 6.7-15 15v72.4c0 8.3 6.7 15 15 15h103c8.3 0 15-6.7 15-15v-72.4c0-8.2-6.7-15-15-15zm-15 72.4h-73v-42.4h73v42.4z"/></svg>