<svg version="1.1" id="Capa_1" xmlns="http://www.w3.org/2000/svg" x="0" y="0" viewBox="0 0 512 512" xml:space="preserve"><style>.st0{fill:#2a579c}</style><path class="st0" d="M467 62h-65.9c-1.6-4.6-5.5-8.3-10.5-9.6L362 45.3V15c0-8.3-6.7-15-15-15h-60c-8.3 0-15 6.7-15 15v30.3l-28.6 7.2c-5 1.2-8.9 4.9-10.5 9.6H167c-24.8 0-45 20.2-45 45v360c0 24.8 20.2 45 45 45h300c24.8 0 45-20.2 45-45V107c0-24.8-20.2-45-45-45zm-45 290h-55c-8.3 0-15 6.7-15 15v55H212V92h20v25c0 8.3 6.7 15 15 15h140c8.3 0 15-6.7 15-15V92h20v260zm-21.2 30L382 400.8V382h18.8zM290.6 71.6c6.7-1.7 11.4-7.7 11.4-14.6V30h30v27c0 6.9 4.7 12.9 11.4 14.6l28.6 7.2V102H262V78.7l28.6-7.1zM482 467c0 8.3-6.7 15-15 15H167c-8.3 0-15-6.7-15-15V107c0-8.3 6.7-15 15-15h15v345c0 8.3 6.7 15 15 15h170c4 0 7.8-1.6 10.6-4.4l70-70c2.8-2.8 4.4-6.6 4.4-10.6V92h15c8.3 0 15 6.7 15 15v360z"/><path class="st0" d="M377 162H257c-8.3 0-15 6.7-15 15v120c0 8.3 6.7 15 15 15h120c8.3 0 15-6.7 15-15V177c0-8.3-6.7-15-15-15zm-15 120h-90v-90h30v15c0 8.3 6.7 15 15 15s15-6.7 15-15v-15h30v90zm-45 70h-60c-8.3 0-15 6.7-15 15s6.7 15 15 15h60c8.3 0 15-6.7 15-15s-6.7-15-15-15zM75 92H60V77c0-8.3-6.7-15-15-15s-15 6.7-15 15v15H15c-8.3 0-15 6.7-15 15v300c0 2 .4 4 1.2 5.9L30 480.1V497c0 8.3 6.7 15 15 15s15-6.7 15-15v-16.9l28.8-67.2c.8-1.9 1.2-3.9 1.2-5.9V107c0-8.3-6.7-15-15-15zM45 438.9L37.7 422h14.5L45 438.9zM60 392H30V202h30v190zm0-220H30v-50h30v50z"/></svg>