<svg xmlns="http://www.w3.org/2000/svg" viewBox="0 0 915.1 142.3"><linearGradient id="a" gradientUnits="userSpaceOnUse" x1="36.925" y1="112.987" x2="36.925" y2="1.355"><stop offset="0" stop-color="#00abc5"/><stop offset=".439" stop-color="#00929e"/><stop offset="1" stop-color="#007b8d"/></linearGradient><path d="M58.7 113c.8-8.5-2.7-17.8-9.8-25.9-.2-.2-.3-.4-.5-.6-2.9-3.2-6.4-6.3-11-9.7-2.5-1.9-5.2-3.8-7.8-5.6-1.8-1.3-3.7-2.6-5.5-3.9-7.6-5.4-16-12.4-20.4-22-3.6-8-4-17.2-1.1-25.5C5.3 12 10.9 5.4 18.1 1.3c-.2 1.1-.2 2.3-.1 3.5l-.2-.1.4 1.5c.2.9.5 1.9.8 2.8 1.4 3.7 4.3 7.7 8.5 11.7C32.1 25 38.4 29.9 44 34.1c1.6 1.2 3 2.3 4.4 3.4C55.6 43.1 61 47.4 65 52.4c4.4 5.4 6.9 11.3 7.7 18.5v.3c.5 5 .3 10.2-.7 15.3-1.7 10-6.5 19.3-13.3 26.5z" fill="url(#a)"/><linearGradient id="b" gradientUnits="userSpaceOnUse" x1="0" y1="43.785" x2="73.857" y2="43.785"><stop offset=".095" stop-color="#00517b"/><stop offset=".151" stop-color="#045b86"/><stop offset=".377" stop-color="#137dad"/><stop offset=".585" stop-color="#1e96ca"/><stop offset=".765" stop-color="#25a5db"/><stop offset=".899" stop-color="#27aae1"/></linearGradient><path d="M59.2 75.4c-24.9-24-36.4-56.9-39.4-66.5-.3-.9-.6-1.8-.8-2.7-.4-2-.4-4 .2-6.1 0 0-26.1 28.3 17.8 77.4 3.9 2.9 7.6 6 10.9 9.6.2.2.3.4.5.6 1.7-5.8 5.7-9.7 10.8-12.3z" fill="url(#b)"/><linearGradient id="c" gradientUnits="userSpaceOnUse" x1="19.724" y1="42.097" x2="73.526" y2="42.097"><stop offset="0" stop-color="#00517b"/><stop offset="1" stop-color="#27aae1"/></linearGradient><path d="M48.9 37c-6.2-4.8-15-11.2-20.8-16.7-3.4-3.2-6.7-7.2-8.4-11.4 3 9.7 14.6 42.5 39.4 66.5 4.3-2.3 9.3-3.7 14.4-4.5C71.7 55 62.6 47.6 48.9 37z" fill="url(#c)"/><linearGradient id="d" gradientUnits="userSpaceOnUse" x1="7.432" y1="50.557" x2="27.015" y2="39.251"><stop offset="0" stop-color="#00517b"/><stop offset="1" stop-color="#27aae1"/></linearGradient><path d="M19.1 0C11.2 4 4.9 11.2 1.9 19.6-1 28-.6 37.5 3.1 45.6 7.3 55 15.4 62 23.7 68c4.4 3.2 8.9 6.2 13.2 9.4C-7 28.3 19.1 0 19.1 0z" fill="url(#d)"/><linearGradient id="e" gradientUnits="userSpaceOnUse" x1="60.598" y1="99.848" x2="60.598" y2="60.203"><stop offset="0" stop-color="#27aae1"/><stop offset="1" stop-color="#00517b"/></linearGradient><path d="M57.7 115c7.9-7.6 13.2-17.7 15.2-28.4-5-3.4-9.5-7.2-13.7-11.2-5 2.7-9.1 6.6-10.9 12.2 6.7 7.5 11.2 17.6 9.4 27.4z" fill="url(#e)"/><linearGradient id="f" gradientUnits="userSpaceOnUse" x1="66.505" y1="86.609" x2="66.505" y2="70.857"><stop offset="0" stop-color="#27aae1"/><stop offset="1" stop-color="#00517b"/></linearGradient><path d="M72.9 86.6c1-5.1 1.2-10.3.7-15.5v-.3c-5 .8-10.1 2.2-14.4 4.5 4.1 4.1 8.7 7.9 13.7 11.3z" fill="url(#f)"/><linearGradient id="g" gradientUnits="userSpaceOnUse" x1="-2.84" y1="68.999" x2="16.014" y2="68.999"><stop offset="0" stop-color="#f6987f"/><stop offset=".607" stop-color="#ed1c24"/><stop offset="1" stop-color="#b11116"/></linearGradient><path d="M35.7 81.4C25.6 74 16.1 69.5 5.5 56.5 3.7 62.4 2.8 68.7 3 75c7.4-1.9 19.7-2.8 32.7 6.4z" fill="url(#g)"/><linearGradient id="h" gradientUnits="userSpaceOnUse" x1="17.996" y1="108.049" x2="53.414" y2="108.049"><stop offset="0" stop-color="#b11116"/><stop offset=".393" stop-color="#ed1c24"/><stop offset=".903" stop-color="#f6987f"/></linearGradient><path d="M39.9 138.3c-.1 1.4-.5 2.8-1.2 4.1 5.4-6.6 10.4-13.9 12.8-22.2 2.4-8.2 2.1-17.6-2.5-24.9-1.1-1.8-2.5-3.6-4-5.3-.8-.9-1.6-1.7-2.4-2.5l-.3-.3c-2-1.9-4.1-3.7-6.1-5.3-.2-.1-.4-.3-.6-.4C22.7 72.2 10.4 73.1 3 75c37.9 31 38.6 54.3 36.9 63.3z" fill="url(#h)"/><linearGradient id="i" gradientUnits="userSpaceOnUse" x1="3.049" y1="106.619" x2="40.392" y2="106.619"><stop offset="0" stop-color="#b11116"/><stop offset=".393" stop-color="#ed1c24"/><stop offset="1" stop-color="#f6987f"/></linearGradient><path d="M3 75s16.7 14.5 28.5 42c3.1 3 5.6 6.7 6.8 10.8 1 3.4 2 7 1.6 10.5 1.7-9 1-32.3-36.9-63.3z" fill="url(#i)"/><linearGradient id="j" gradientUnits="userSpaceOnUse" x1="17.296" y1="116.985" x2="17.296" y2="74.954"><stop offset="0" stop-color="#ce181e"/><stop offset=".652" stop-color="#ce181e"/><stop offset=".999" stop-color="#e79093"/></linearGradient><path d="M3 75c.4 10.8 4.2 21.3 11.8 28.8 3.6 3.5 11.4 8.6 15.2 11.9.5.4 1 .9 1.5 1.3C19.7 89.4 3 75 3 75z" fill="url(#j)"/><path d="M130.7 17.7L154 70.4h-10l-4.4-9.7h-28.1l-4.3 9.7h-9.9l23.3-52.7h10.1zm-15.6 34.5h21l-10.1-25h-1l-9.9 25zm45.6 18.2V17.7h27.2c4.6 0 9 1.6 11.9 4.6 2.3 2.4 3.6 5.4 3.6 9.3 0 2-.4 3.9-1.3 5.7-.8 1.3-1.9 2.5-3.6 3.6v.4c2.2 1 3.9 2.5 5.3 4.2 1.8 2.5 2.6 5.4 2.6 8.7 0 4.6-1.8 8.5-4.8 11.3-3.2 3.1-7.6 4.8-12.6 4.8h-28.3zm31.7-42.8c-1.2-1.1-3-1.8-5.1-1.8H170V38h18.8c1.6 0 3.1-.8 3.9-1.8 1.1-1.2 1.5-2.7 1.5-4.2 0-1.8-.6-3.3-1.8-4.4zm3.2 21.4c-1.5-1.7-3.9-2.7-6.1-2.7H170v16h19c2.4 0 4.6-1.1 6.2-2.5 1.2-1.3 2-3.3 2-5.5.1-2.2-.5-4.1-1.6-5.3zm13.8-31.3h48.4v8.4h-19.6v44.2H229V26.1h-19.6v-8.4zm97.3 6.8c5 5.1 7.8 12 7.8 19.6s-2.7 14.2-7.5 19.1c-5 5.1-11.9 8.2-20.3 8.2-8.3 0-15.7-3.6-20.5-8.8-4.4-4.7-7.3-11.5-7.3-18.5 0-7.3 2.7-14 7.4-18.9 4.9-5.2 12.1-8.4 20.5-8.4 8.2-.1 15.1 2.8 19.9 7.7zm-33.3 32.6c3.2 3.6 8.1 5.8 13.4 5.8 5.3 0 10.1-2.1 13.4-5.7 3-3.2 4.9-7.8 4.9-13.2 0-5.4-2-10.1-5-13.3-3.4-3.5-8.3-5.6-13.3-5.6-5.2 0-10.1 2.1-13.4 5.7-3.1 3.2-5 7.8-5 13.2 0 5.3 1.9 9.9 5 13.1zm57.5 13.3h-9.4V17.7h40v8.4h-30.6v44.3zm60.6-52.7l23.3 52.7h-10.1l-4.4-9.7h-28.1l-4.3 9.7H358l23.3-52.7h10.2zm-15.6 34.5h21l-10.1-25h-1.1l-9.8 25zm78.5 7.5c2.3-1.7 3.2-3.9 3.2-6.7 0-2.1-.8-3.9-2.1-5.1-1.4-1.3-3.5-2-6-2h-19.3v-8.3H448c2.1 0 3.7-.6 4.7-1.7s1.5-2.5 1.5-4.3c0-1.8-1-3.3-2.3-4.3-2.8-1.8-7.4-2.3-10.3-2.3-4.8 0-9.9 1-15.7 4.1l-3.7-6.9c6.1-3.7 12-5.4 19.9-5.4 5.1 0 11.8 1 16.1 4.2 3.1 2.3 5.3 5.7 5.3 10.4 0 2.2-.4 4-1.3 5.6-.8 1.4-1.8 2.5-3.2 3.4v.4c2.3 1.3 4.4 3 5.7 4.7 1.4 2 2.2 4.5 2.2 7.5 0 5-2 9.8-6.3 13.3-3.9 3.1-9.7 5.1-18.2 5.1-8.9 0-16-1.6-22.6-6.1l3.9-7.5c6.7 3.8 11.6 5 18.6 5 5.5-.1 9.5-1.1 12.1-3.1zm29.3-42v20.5h7.5c1.3 0 2.5-.3 3.5-.8.9-.4 1.6-1.3 2.2-2.2l6.1-10.7c1.3-2.4 2.8-4.1 4.8-5.4s4.6-2 7.8-2c2 0 3.3.1 5.4.6l-1 8h-2.3c-1.9 0-3.4.2-4.6.9-.9.5-1.7 1.2-2.3 2.4l-5.9 10c-.5 1-1.4 2.3-2.3 3.2l18.5 28.2H510l-15.3-24.1c-1.2.3-2.3.4-3.3.4h-8v23.8h-9.3V17.7h9.6zm86.1 6.8c5 5.1 7.8 12 7.8 19.6s-2.7 14.2-7.5 19.1c-5 5.1-11.9 8.2-20.3 8.2s-15.7-3.6-20.5-8.8c-4.4-4.7-7.3-11.5-7.3-18.5 0-7.3 2.7-14 7.4-18.9 4.9-5.2 12.1-8.4 20.5-8.4 8.2-.1 15.1 2.8 19.9 7.7zm-33.3 32.6c3.2 3.6 8.1 5.8 13.4 5.8 5.3 0 10.1-2.1 13.4-5.7 3-3.2 4.9-7.8 4.9-13.2 0-5.4-2-10.1-5-13.3-3.4-3.5-8.3-5.6-13.3-5.6-5.2 0-10.1 2.1-13.4 5.7-3.1 3.2-5 7.8-5 13.2 0 5.3 1.9 9.9 5 13.1zm58.4-39.4l18.6 26.1 18.2-26.1h10.1v52.7h-9.3V31.7h-.4l-17.3 24.5h-3.4L594 31.7h-.4v38.6h-8.9V17.7h10.2zm101.3 0v52.7h-9.4V26.1h-26.9v44.2h-9.4V17.7h45.7zm61 0v52.7H748V26.1h-20l-4.6 32.6c-.5 3.9-2 7-4 9-2.2 1.9-5.4 3-9.2 3-3.1 0-5.2-.3-8.3-1.4l1.8-7.7c2.2.5 3.5.6 4.9.6 1.6 0 3.2-.4 4.1-1.4 1.1-1.1 1.7-2.7 1.9-4.5l5.3-38.6h37.3zm8.9 0H807v8.6h-31.4v12.2h28.1V47h-28.1v14.8h32.7v8.5h-42.1V17.7zm59.2 0v20.5h7.5c1.3 0 2.5-.3 3.5-.8.9-.4 1.6-1.3 2.2-2.2l6.1-10.7c1.3-2.4 2.8-4.1 4.8-5.4s4.6-2 7.8-2c2 0 3.3.1 5.4.6l-1 8h-2.3c-1.9 0-3.4.2-4.6.9-.9.5-1.7 1.2-2.3 2.4l-5.9 10c-.5 1-1.4 2.3-2.3 3.2L863 70.4h-11.1l-15.3-24.1c-1.2.3-2.3.4-3.3.4h-8v23.8H816V17.7h9.3zm41.4 0h48.4v8.4h-19.6v44.2h-9.2V26.1h-19.6v-8.4zM102.9 96.1v11.7h4.3c.8 0 1.5-.2 2-.5s.9-.8 1.3-1.3l3.5-6.1c.8-1.4 1.6-2.4 2.8-3.1s2.6-1.2 4.5-1.2c1.2 0 1.9.1 3.1.4l-.6 4.6h-1.3c-1.1 0-2 .1-2.6.5-.5.3-1 .7-1.3 1.4l-3.4 5.7c-.3.6-.8 1.3-1.3 1.9l10.6 16.1h-6.3l-8.7-13.8c-.7.2-1.3.2-1.9.2H103v13.6h-5.3V96.1h5.2zm63.2 18.8c-2.1 2-5 3.2-8.1 3.2h-9.1v8.2h-5.5V96.1H158c3.5 0 6.7 1.5 8.8 4 1.6 1.9 2.5 4.2 2.5 7 .1 3.1-1.2 5.9-3.2 7.8zm-3.6-3.6c.8-1.2 1.5-2.8 1.5-4.1 0-1.6-.5-3.1-1.5-4.1-1.1-1.3-2.7-2-4.6-2H149v12.2h9.3c1.6-.1 3.2-.9 4.2-2zm48.4 11.7c-2.1 2.1-5 3.2-8.1 3.2h-14.4V96.1h5.4v8.1h9c3.3 0 6.2 1.4 8.3 3.5 1.8 1.9 2.9 4.5 2.9 7.4.1 3.3-1.1 5.9-3.1 7.9zm-3.8-12c-1.1-1.1-2.6-2-4.5-2h-8.8v12.4h9.1c1.7 0 3.1-.7 4.1-1.7 1.2-1.1 1.8-2.8 1.8-4.6-.1-1.5-.6-3-1.7-4.1zm15.3 15.2H217V96.1h5.3v30.1zm25.9-30.1L259 111l10.4-14.9h5.8v30.1h-5.3v-22.1h-.2l-9.9 14h-2l-10-14h-.2v22.1h-5.1V96.1h5.8z" fill="#fff"/></svg>